#!OML:ASF F:\VICON\USERDATA\INSTALL\rory3\rory3.ASF
:FULLY-SPECIFIED
:DEGREES
97
root -10.6802 17.8489 -2.21721 -5.39954 6.03513 3.49092
lowerback 10.798 0.711852 -5.61636
upperback 1.05374 0.250992 -0.493589
thorax -4.97997 0.235718 2.6107
lowerneck -20.3158 -5.11421 -11.9954
upperneck 29.8991 -5.82573 8.01456
head 14.2758 -2.79639 4.25037
rclavicle 3.75769e-015 -8.34896e-015
rhumerus -33.3123 -18.554 -79.9231
rradius 27.1393
rwrist 10.5616
rhand -16.0075 7.90933
rfingers 7.12502
rthumb 10.193 -21.8237
lclavicle 3.75769e-015 -8.34896e-015
lhumerus -31.8299 3.70618 85.1216
lradius 33.3165
lwrist -4.78323
lhand -17.5463 26.9903
lfingers 7.12502
lthumb 8.70815 56.7907
rfemur -16.429 -4.15794 12.4173
rtibia 66.1493
rfoot -2.13599 -0.662246
rtoes 3.04179
lfemur 1.69178 1.06703 -31.3703
ltibia 13.6805
lfoot -4.924 -3.5406
ltoes 7.50578
98
root -10.6634 17.8316 -2.10075 -5.27469 6.57909 3.6793
lowerback 10.5661 0.654648 -6.10488
upperback 1.11638 0.145305 -0.321069
thorax -4.77713 0.18823 3.08313
lowerneck -20.3611 -5.14831 -12.1703
upperneck 29.8485 -5.78012 7.95439
head 14.2632 -2.80279 4.26172
rclavicle 1.9425e-014 -2.04251e-014
rhumerus -33.3246 -18.4773 -79.5904
rradius 27.0319
rwrist 10.6305
rhand -16.1673 7.74959
rfingers 7.12502
rthumb 10.0387 -21.991
lclavicle 1.9425e-014 -2.04251e-014
lhumerus -31.4149 3.52781 85.4663
lradius 33.6976
lwrist -4.58578
lhand -17.5533 26.5954
lfingers 7.12502
lthumb 8.70145 56.396
rfemur -17.2305 -3.85365 12.1668
rtibia 65.3216
rfoot -3.27919 -0.800549
rtoes 1.98352
lfemur 1.63768 0.997883 -31.6141
ltibia 14.4891
lfoot -5.5842 -3.88894
ltoes 8.35018
99
root -10.6476 17.8127 -1.98417 -5.24663 7.11555 3.7709
lowerback 10.5277 0.588599 -6.31444
upperback 1.13244 0.0390246 -0.280999
thorax -4.7285 0.138504 3.25875
lowerneck -20.5053 -5.12925 -12.0807
upperneck 29.8826 -5.72916 7.84655
head 14.2954 -2.78214 4.21133
rclavicle 8.45767e-015 -1.21259e-014
rhumerus -33.4765 -18.665 -79.3418
rradius 26.9691
rwrist 11.2706
rhand -16.1194 7.40517
rfingers 7.12502
rthumb 10.085 -22.3332
lclavicle 8.45767e-015 -1.21259e-014
lhumerus -31.1181 3.21479 85.611
lradius 34.096
lwrist -4.30823
lhand -17.7226 26.2176
lfingers 7.12502
lthumb 8.53804 56.025
rfemur -17.893 -3.52198 12.0327
rtibia 64.4073
rfoot -4.21661 -1.05555
rtoes 1.05062
lfemur 1.76902 0.906571 -31.7529
ltibia 15.0683
lfoot -6.0777 -4.16481
ltoes 8.93018
100
root -10.6356 17.7933 -1.87293 -5.13997 7.69041 3.85587
lowerback 10.6158 0.501122 -6.37394
upperback 1.00269 -0.10049 -0.373899
thorax -4.90026 0.0782939 3.21512
lowerneck -20.4342 -5.09734 -11.9188
upperneck 29.9317 -5.74286 7.81726
head 14.2951 -2.7749 4.17097
rclavicle -2.06612e-014 2.0276e-014
rhumerus -33.86 -19.0758 -79.1683
rradius 26.9137
rwrist 11.8974
rhand -15.9522 7.29007
rfingers 7.12502
rthumb 10.2463 -22.4404
lclavicle -2.06612e-014 2.0276e-014
lhumerus -31.0172 2.78031 85.5336
lradius 34.5222
lwrist -4.13218
lhand -17.9338 26.0212
lfingers 7.12502
lthumb 8.33418 55.8368
rfemur -18.6071 -3.21789 11.9271
rtibia 63.4055
rfoot -5.01945 -1.42108
rtoes 0.665226
lfemur 1.84754 0.964921 -31.8605
ltibia 15.5526
lfoot -6.62609 -4.58057
ltoes 7.60607
101
root -10.6195 17.7773 -1.76228 -4.97176 8.37702 4.11118
lowerback 10.7155 0.385869 -6.60678
upperback 0.864732 -0.299285 -0.465279
thorax -5.08093 -0.00669035 3.28004
lowerneck -20.3443 -5.11171 -11.9761
upperneck 29.9801 -5.79965 7.94235
head 14.3112 -2.79118 4.22516
rclavicle -2.23493e-014 7.15625e-015
rhumerus -34.2355 -19.0932 -79.0658
rradius 26.8753
rwrist 11.8348
rhand -15.9867 7.69212
rfingers 7.12502
rthumb 10.213 -22.04
lclavicle -2.23493e-014 7.15625e-015
lhumerus -30.8953 2.47067 85.5085
lradius 34.9761
lwrist -4.19702
lhand -18.0039 26.0162
lfingers 7.12502
lthumb 8.26654 55.8345
rfemur -19.3274 -2.99819 11.5813
rtibia 62.2857
rfoot -5.67279 -1.80796
rtoes 0.0373512
lfemur 1.94092 0.868845 -32.1751
ltibia 16.0412
lfoot -7.19993 -4.96112
ltoes 5.89616
102
root -10.6045 17.7632 -1.64996 -4.83179 8.96263 4.16982
lowerback 10.6965 0.286288 -6.68685
upperback 0.837085 -0.439965 -0.455207
thorax -5.08404 -0.0732685 3.35649
lowerneck -20.4366 -5.16344 -12.0883
upperneck 30.0196 -5.8473 8.01092
head 14.3629 -2.81377 4.26548
rclavicle -2.26444e-014 -6.01324e-015
rhumerus -34.4055 -19.0731 -78.981
rradius 26.8469
rwrist 11.977
rhand -16.1414 8.06897
rfingers 7.12502
rthumb 10.0638 -21.6704
lclavicle -2.26444e-014 -6.01324e-015
lhumerus -30.6356 2.21194 85.5906
lradius 35.6101
lwrist -4.01181
lhand -17.994 26.806
lfingers 7.12502
lthumb 8.2761 56.6239
rfemur -19.9909 -2.6839 11.4741
rtibia 60.9911
rfoot -6.29682 -2.28005
rtoes -0.467578
lfemur 2.07761 0.589918 -32.2693
ltibia 16.4471
lfoot -7.67021 -5.16878
ltoes 5.93064
103
root -10.5901 17.7442 -1.53402 -4.74263 9.45661 4.2264
lowerback 10.6624 0.242144 -6.78753
upperback 0.869421 -0.506067 -0.45466
thorax -5.02289 -0.106299 3.42305
lowerneck -20.6663 -5.23069 -12.1496
upperneck 30.0981 -5.91691 8.06848
head 14.4627 -2.83907 4.28906
rclavicle -1.19597e-014 5.1684e-015
rhumerus -34.4808 -19.2357 -78.8472
rradius 26.7464
rwrist 12.3906
rhand -16.2941 8.06335
rfingers 7.12502
rthumb 9.91646 -21.6831
lclavicle -1.19597e-014 5.1684e-015
lhumerus -30.3297 1.90044 85.6656
lradius 36.3109
lwrist -3.53156
lhand -17.4313 27.9407
lfingers 7.12502
lthumb 8.81918 57.7364
rfemur -20.4895 -2.3958 11.3725
rtibia 59.5319
rfoot -6.82755 -2.86188
rtoes -1.1616
lfemur 2.33346 0.369122 -32.3526
ltibia 16.7072
lfoot -8.06252 -5.3435
ltoes 6.86148
104
root -10.572 17.7376 -1.41958 -4.61983 10.0367 4.18475
lowerback 10.6404 0.144786 -6.74197
upperback 0.821576 -0.630285 -0.4594
thorax -5.04805 -0.166474 3.41055
lowerneck -20.664 -5.24617 -12.1472
upperneck 30.1044 -5.95946 8.12397
head 14.4728 -2.84911 4.30439
rclavicle 2.29278e-014 -4.47266e-016
rhumerus -34.7323 -19.2774 -78.7641
rradius 26.7415
rwrist 12.622
rhand -16.3765 7.93661
rfingers 7.12502
rthumb 9.83689 -21.8136
lclavicle 2.29278e-014 -4.47266e-016
lhumerus -30.1936 1.61265 85.6319
lradius 36.8514
lwrist -3.3753
lhand -17.1089 27.9506
lfingers 7.12502
lthumb 9.13026 57.7329
rfemur -20.9569 -2.09897 11.3778
rtibia 57.8579
rfoot -7.20676 -3.65162
rtoes -1.54889
lfemur 2.56709 0.157477 -32.3281
ltibia 16.9124
lfoot -8.52074 -5.60349
ltoes 7.16979
105
root -10.5535 17.735 -1.31009 -4.4525 10.5193 4.08177
lowerback 10.6908 0.0532795 -6.6005
upperback 0.696938 -0.744675 -0.465051
thorax -5.19739 -0.21815 3.34301
lowerneck -20.5243 -5.23209 -12.0462
upperneck 29.9884 -5.96733 8.0674
head 14.3849 -2.84897 4.25772
rclavicle 1.31644e-014 7.62836e-015
rhumerus -35.0204 -19.2677 -78.6832
rradius 26.7347
rwrist 13.0866
rhand -16.2001 7.67141
rfingers 7.12502
rthumb 10.0071 -22.0707
lclavicle 1.31644e-014 7.62836e-015
lhumerus -30.1398 1.25102 85.5663
lradius 37.1955
lwrist -3.44137
lhand -17.2125 27.6251
lfingers 7.12502
lthumb 9.03028 57.4119
rfemur -21.5046 -1.68267 11.4565
rtibia 56.0139
rfoot -7.4064 -4.28094
rtoes -2.12107
lfemur 2.80326 -0.0997313 -32.2448
ltibia 16.9506
lfoot -8.81468 -5.75435
ltoes 7.82644
106
root -10.5356 17.7332 -1.20069 -4.23526 10.9236 4.02868
lowerback 10.6839 -0.0114168 -6.54076
upperback 0.594194 -0.826564 -0.451096
thorax -5.29408 -0.254164 3.33672
lowerneck -20.6196 -5.26106 -12.0974
upperneck 30.0288 -6.00352 8.13484
head 14.4335 -2.85962 4.28929
rclavicle 2.22689e-014 2.23633e-014
rhumerus -35.2995 -19.276 -78.5381
rradius 26.9127
rwrist 13.6377
rhand -15.7874 7.02598
rfingers 7.12502
rthumb 10.4052 -22.6966
lclavicle 2.22689e-014 2.23633e-014
lhumerus -29.9063 1.04185 85.5582
lradius 37.3697
lwrist -3.68577
lhand -17.7146 27.154
lfingers 7.12502
lthumb 8.54577 56.9611
rfemur -21.9922 -1.25302 11.4552
rtibia 53.9864
rfoot -7.53259 -4.88831
rtoes -2.0883
lfemur 3.06538 -0.255059 -32.1987
ltibia 16.8216
lfoot -9.05089 -5.98068
ltoes 7.86317
107
root -10.5183 17.7314 -1.08751 -4.07359 11.4613 4.19726
lowerback 10.6607 -0.0946842 -6.75663
upperback 0.591446 -0.960508 -0.438452
thorax -5.26643 -0.31554 3.49098
lowerneck -20.8668 -5.25056 -12.1434
upperneck 30.1228 -5.92987 8.10121
head 14.5207 -2.83386 4.29983
rclavicle -5.06513e-015 -1.49089e-016
rhumerus -35.5692 -19.1228 -78.3992
rradius 27.2353
rwrist 13.8369
rhand -15.5346 6.5769
rfingers 7.12502
rthumb 10.6491 -23.1332
lclavicle -5.06513e-015 -1.49089e-016
lhumerus -29.5016 0.92602 85.626
lradius 37.5273
lwrist -3.89722
lhand -18.2253 26.8709
lfingers 7.12502
lthumb 8.05288 56.6975
rfemur -22.2303 -0.886116 11.1731
rtibia 51.7864
rfoot -7.66788 -5.67059
rtoes -2.28255
lfemur 3.48443 -0.410496 -32.3899
ltibia 16.6311
lfoot -9.27816 -6.23573
ltoes 6.92494
